<?xml version="1.0" encoding="UTF-8"?> <svg xmlns="http://www.w3.org/2000/svg" id="Capa_1" data-name="Capa 1" viewBox="0 0 60 13.89"><defs><style> .cls-1 { fill: #000; } .cls-1, .cls-2, .cls-3 { stroke-width: 0px; } .cls-2 { fill: #045ea2; } .cls-3 { fill: #1d1d1b; } </style></defs><path class="cls-1" d="M3.58,11.04s.9-.08,1.04-1.19c0,0,.24-1.8-1.79-1.94H0v5.3h1.92v-1.7l.9,1.7h2.15l-1.39-2.17ZM2.74,9.89c-.01.64-.87.55-.87.55v-1.1c.89-.08.87.55.87.55Z"></path><path class="cls-1" d="M25.7,11.04s.9-.08,1.04-1.19c0,0,.24-1.8-1.79-1.94h-2.83v5.3h1.92v-1.7l.9,1.7h2.15l-1.39-2.17ZM24.92,9.89c-.01.64-.92.55-.92.55v-1.1c.94-.08.92.55.92.55Z"></path><polygon class="cls-1" points="5.26 7.91 5.26 13.21 8.86 13.21 8.86 11.77 7.17 11.77 7.17 11.21 8.69 11.21 8.69 9.85 7.17 9.85 7.17 9.33 8.86 9.33 8.86 7.91 5.26 7.91"></polygon><polygon class="cls-1" points="47.87 7.92 47.87 13.22 51.47 13.22 51.47 11.78 49.78 11.78 49.78 11.22 51.29 11.22 51.29 9.86 49.78 9.86 49.78 9.34 51.47 9.34 51.47 7.92 47.87 7.92"></polygon><path class="cls-1" d="M36.37,7.91h-2.11l-1.72,4.7-1.43-2.08,1.58-2.63h-2.16l-1.19,2.17v-2.17h-1.9v5.3h1.9v-2.1l1.26,2.1h3.82l.15-.68h1.42l.19.68h2.07l-1.86-5.3ZM34.84,11.41l.4-1.77.4,1.77h-.81Z"></path><path class="cls-1" d="M42.74,10.86s-.21-.28-.71-.43c0,0,.81-.22.71-1.27,0,0-.06-1.23-1.57-1.26h-2.74v5.32h2.74s1.71.04,1.83-1.3c0,0,.05-.64-.26-1.06ZM40.23,9.24c.77-.05.75.39.75.39,0,.46-.75.39-.75.39v-.79ZM41.17,11.57c-.01.52-.95.45-.95.45v-.9c.97-.06.95.45.95.45Z"></path><polygon class="cls-1" points="43.6 7.9 43.6 13.22 47.38 13.22 47.38 11.5 45.53 11.5 45.53 7.9 43.6 7.9"></polygon><path class="cls-1" d="M20.13,7.91h-2.15l-1.71,4.6-.81-4.6h-1.98l-.75,2.49-.73-2.49h-2l-.92,5.3h1.92l.27-2.81.86,2.81h1.13l.86-2.81.36,2.81h3.66l.16-.67h1.4l.2.67h2.07l-1.84-5.3ZM18.56,11.34l.4-1.77.4,1.77h-.81Z"></path><g><ellipse class="cls-2" cx="54.06" cy="12.11" rx="2.17" ry="1.68" transform="translate(-.21 23.24) rotate(-24.21)"></ellipse><polygon class="cls-2" points="54.7 2.1 60 0 56.03 9.59 53.22 9.85 54.7 2.1"></polygon></g><path class="cls-3" d="M57.81,11.82v.2h-.39v1.01h-.24v-1.01h-.39v-.2h1.02ZM59.13,13.03l-.04-.71c0-.09,0-.21,0-.34h-.01c-.03.11-.07.25-.1.36l-.22.67h-.25l-.22-.69c-.02-.09-.06-.24-.08-.34h-.01c0,.11,0,.23,0,.34l-.04.71h-.23l.09-1.22h.36l.21.59c.03.09.05.18.08.31h0c.03-.11.06-.21.08-.3l.21-.6h.35l.09,1.22h-.24Z"></path></svg> 